# AST/ASF file generated using VICON BodyLanguage
# -----------------------------------------------
:version 1.10
:name VICON
:units
  mass 1.0
  length 0.45
  angle deg
:documentation
   .ast/.asf automatically generated from VICON data using
   VICON BodyBuilder and BodyLanguage model FoxedUp or BRILLIANT.MOD
:root
   order TX TY TZ RX RY RZ
   axis XYZ
   position 0 0 0  
   orientation 0 0 0 
:bonedata
  begin
     id 1 
     name lhipjoint
     direction 0.714689 -0.624256 0.315473 
     length 2.45343 
     axis 0 0 0  XYZ
  end
  begin
     id 2 
     name lfemur
     direction 0.34202 -0.939693 0  
     length 6.59069  
     axis 0 0 20  XYZ
    dof rx ry rz
    limits (-160.0 20.0)
           (-70.0 70.0)
           (-60.0 70.0)
  end
  begin
     id 3 
     name ltibia
     direction 0.34202 -0.939693 0   
     length 6.73476   
     axis 0 0 20   XYZ
    dof rx
    limits (-10.0 170.0)
  end
  begin
     id 4 
     name lfoot
     direction 0.0718085 -0.197292 0.977711   
     length 1.52607   
     axis -90 7.62852e-016 20   XYZ
    dof rx rz
    limits (-45.0 90.0)
           (-70.0 20.0)
  end
  begin
     id 5 
     name ltoes
     direction 1.53553e-011 -4.22024e-011 1   
     length 0.777832   
     axis -90 7.62852e-016 20   XYZ
    dof rx
    limits (-90.0 20.0)
  end
  begin
     id 6 
     name rhipjoint
     direction -0.727419 -0.612432 0.309497   
     length 2.50079  
     axis 0 0 0  XYZ 
  end
  begin
     id 7 
     name rfemur
     direction -0.34202 -0.939693 0   
     length 6.51665   
     axis 0 0 -20   XYZ
    dof rx ry rz
    limits (-160.0 20.0)
           (-70.0 70.0)
           (-70.0 60.0)
  end
  begin
     id 8 
     name rtibia
     direction -0.34202 -0.939693 0   
     length 6.48919   
     axis 0 0 -20   XYZ
    dof rx
    limits (-10.0 170.0)
 end
 begin
     id 9 
     name rfoot
     direction -0.112205 -0.308282 0.944655   
     length 1.68717  
     axis -90 -7.62852e-016 -20   XYZ
    dof rx rz
    limits (-45.0 90.0)
           (-20.0 70.0)
  end
  begin
     id 10 
     name rtoes
     direction -1.53583e-011 -4.21993e-011 1   
     length 0.846859   
     axis -90 -7.62852e-016 -20   XYZ
    dof rx
    limits (-90.0 20.0)
  end
  begin
     id 11 
     name lowerback
     direction -0.00119603 0.996364 -0.0851956   
     length 1.67242   
     axis 0 0 0   XYZ
    dof rx ry rz
    limits (-20.0 45.0)
           (-30.0 30.0)
           (-30.0 30.0)
  end
  begin
     id 12 
     name upperback
     direction -0.00531001 0.998318 0.0577248   
     length 1.64819   
     axis 0 0 0   XYZ
    dof rx ry rz
    limits (-20.0 45.0)
           (-30.0 30.0)
           (-30.0 30.0)
  end
  begin
     id 13 
     name thorax
     direction -0.00653676 0.995132 0.0983291   
     length 1.67429   
     axis 0 0 0   XYZ
    dof rx ry rz
    limits (-20.0 45.0)
           (-30.0 30.0)
           (-30.0 30.0)
  end
  begin
     id 14 
     name lowerneck
     direction 0.0141424 0.999886 0.00525412   
     length 1.59623   
     axis 0 0 0   XYZ
    dof rx ry rz
    limits (-20.0 45.0)
           (-30.0 30.0)
           (-30.0 30.0)
  end
  begin
     id 15 
     name upperneck
     direction -0.0640064 0.987178 -0.146232   
     length 1.59576   
     axis 0 0 0   XYZ
    dof rx ry rz
    limits (-20.0 45.0)
           (-30.0 30.0)
           (-30.0 30.0)
  end
  begin
     id 16
     name head
     direction -0.0222942 0.998496 -0.0500859  
     length 1.60959  
     axis 0 0 0   XYZ
    dof rx ry rz
    limits (-20.0 45.0)
           (-30.0 30.0)
           (-30.0 30.0)
  end
  begin
     id 17 
     name lclavicle
     direction 0.908549 0.392612 0.142806  
     length 2.80649  
     axis 0 0 0   XYZ
    dof ry rz
    limits (-20.0 10.0)
           (0.0 20.0)
  end
  begin
     id 18 
     name lhumerus
     direction 1 -4.48968e-011 1.08832e-028   
     length 4.2884   
     axis -180 -30 -90   XYZ
    dof rx ry rz
    limits (-60.0 90.0)
           (-90.0 90.0)
           (-90.0 90.0)
  end
  begin
     id 19
     name lradius
     direction 1 -4.48952e-011 -3.02642e-028   
     length 3.06552   
     axis -180 -30 -90   XYZ
    dof rx
    limits (-10.0 170.0)
  end
  begin
     id 20
     name lwrist
     direction 1 -4.49014e-011 1.58672e-027   
     length 1.53276   
     axis -1.65735e-015 90 90   XYZ
    dof ry
    limits (-180.0 0.0)
 end
  begin
     id 21 
     name lhand
     direction 1 -4.48928e-011 3.17344e-027   
     length 0.753045   
     axis -2.02492e-015 90 90   XYZ
    dof rx rz
    limits (-90.0 90.0)
           (-45.0 45.0)
  end
  begin
     id 22 
     name lfingers
     direction 1 -4.48958e-011 6.34687e-027   
     length 0.607124   
     axis -4.04985e-015 90 90   XYZ
    dof rx
    limits (0.0 90.0)
  end
  begin
     id 23
     name lthumb
     direction 0.707107 -6.34905e-011 0.707107   
     length 0.871712   
     axis -90 45 2.85299e-015   XYZ
    dof rx rz
    limits (-45.0 45.0)
           (-45.0 45.0)
  end
  begin
     id 24 
     name rclavicle
     direction -0.885098 0.45949 0.0739604   
     length 2.9478  
     axis 0 0 0   XYZ 
    dof ry rz
    limits (-10.0 20.0)
           (-20.0 0.0)
  end
  begin
     id 25 
     name rhumerus
     direction -1 -4.4898e-011 -2.61739e-027  
     length 4.52172   
     axis -180 30 90   XYZ
    dof rx ry rz
    limits (-90.0 60.0)
           (-90.0 90.0)
           (-90.0 90.0)
  end
  begin
     id 26 
     name rradius
     direction -1 -4.48945e-011 9.02552e-028   
     length 2.8914   
     axis -180 30 90   XYZ
    dof rx
    limits (-10.0 170.0)
  end
  begin
     id 27 
     name rwrist
     direction -1 -4.49018e-011 1.58672e-027   
     length 1.4457   
     axis -1.65735e-015 -90 -90   XYZ
    dof ry
    limits (-180.0 0.0)
  end
  begin
     id 28
     name rhand
     direction -1 -4.48825e-011 3.17344e-027   
     length 0.680541   
     axis -2.02492e-015 -90 -90   XYZ
    dof rx rz
    limits (-90.0 90.0)
           (-45.0 45.0)
  end
  begin
     id 29
     name rfingers
     direction -1 -4.49067e-011 6.34687e-027   
     length 0.54867   
     axis -4.04985e-015 -90 -90   XYZ
    dof rx
    limits (0.0 90.0)
  end
  begin
     id 30
     name rthumb
     direction -0.707107 -6.34833e-011 0.707107   
     length 0.787783   
     axis -90 -45 -2.85299e-015   XYZ
    dof rx rz
    limits (-45.0 45.0)
           (-45.0 45.0)
  end
:hierarchy
  begin
    root lhipjoint rhipjoint lowerback
    lhipjoint lfemur
    lfemur ltibia
    ltibia lfoot
    lfoot ltoes
    rhipjoint rfemur
    rfemur rtibia
    rtibia rfoot
    rfoot rtoes
    lowerback upperback
    upperback thorax
    thorax lowerneck lclavicle rclavicle
    lowerneck upperneck
    upperneck head
    lclavicle lhumerus
    lhumerus lradius
    lradius lwrist
    lwrist lhand lthumb
    lhand lfingers
    rclavicle rhumerus
    rhumerus rradius
    rradius rwrist
    rwrist rhand rthumb
    rhand rfingers
  end

#!OML:ASF E:\emotionWalksFemale\Project 1\Capture day 1\Session 1\Female1.ASF
:FULLY-SPECIFIED
:DEGREES
70
root 8.70996 15.4537 23.1938 178.219 -2.03607 180.093
lowerback 6.89414 2.91322 2.35602
upperback -3.53261 4.07431 -0.404879
thorax -7.3815 1.85385 -2.2729
lowerneck -0.753592 16.8853 8.9131
upperneck 5.93532 22.5323 -3.81946
head 3.64478 11.2829 -1.64781
rclavicle -3.78343e-014 -4.42296e-015
rhumerus -49.7442 12.2391 -97.1981
rradius 33.8609
rwrist 19.7897
rhand -4.8151 -54.2642
rfingers 7.12502
rthumb 20.9711 -83.1505
lclavicle -3.78343e-014 -4.42296e-015
lhumerus -42.1261 -6.31642 90.6253
lradius 35.7887
lwrist -11.7712
lhand -2.55283 -37.9831
lfingers 7.12502
lthumb 23.1431 -9.35321
rfemur 2.54403 14.8893 26.626
rtibia 15.9007
rfoot -18.2566 -29.5118
rtoes 6.55687
lfemur -5.74761 -15.5591 -23.7433
ltibia 25.7651
lfoot -20.3658 11.8668
ltoes -30.9603
71
root 8.70734 15.4543 23.1919 178.152 -2.06842 180.072
lowerback 6.8917 2.8556 2.31454
upperback -3.49141 3.99441 -0.392562
thorax -7.34371 1.81885 -2.22533
lowerneck -0.744307 16.9051 8.99397
upperneck 5.99284 22.5585 -3.82944
head 3.67785 11.2972 -1.65641
rclavicle 2.52829e-014 6.8208e-015
rhumerus -49.7448 12.3779 -97.3099
rradius 33.7078
rwrist 19.6892
rhand -5.82123 -53.8251
rfingers 7.12502
rthumb 20.0042 -82.8154
lclavicle 2.52829e-014 6.8208e-015
lhumerus -42.1198 -6.30708 90.6285
lradius 35.8363
lwrist -11.8329
lhand -2.52406 -37.7158
lfingers 7.12502
lthumb 23.1707 -9.08938
rfemur 2.69123 14.9362 26.6402
rtibia 15.8207
rfoot -18.2826 -29.5768
rtoes 6.53037
lfemur -5.70041 -15.5624 -23.7693
ltibia 25.8293
lfoot -20.3913 11.7915
ltoes -31.4036
72
root 8.70227 15.459 23.1941 178.155 -1.64588 180.057
lowerback 6.98395 2.95546 2.312
upperback -3.52122 4.13076 -0.386971
thorax -7.42276 1.8836 -2.24203
lowerneck -0.735049 16.9028 8.93992
upperneck 6.01752 22.5509 -3.73793
head 3.6637 11.2949 -1.62291
rclavicle 7.62991e-015 -1.36664e-016
rhumerus -49.7542 12.3527 -97.2787
rradius 33.6432
rwrist 20.204
rhand -5.74174 -53.8168
rfingers 7.12502
rthumb 20.0806 -82.7991
lclavicle 7.62991e-015 -1.36664e-016
lhumerus -42.1128 -6.35284 90.6548
lradius 35.8064
lwrist -11.784
lhand -2.48805 -37.8119
lfingers 7.12502
lthumb 23.2052 -9.18983
rfemur 2.69405 15.0304 26.5509
rtibia 15.689
rfoot -18.1108 -29.2619
rtoes 6.13628
lfemur -5.71152 -15.3377 -23.7855
ltibia 25.9091
lfoot -20.4894 11.83
ltoes -31.2116
73
root 8.69743 15.4591 23.1917 178.114 -1.61072 180.148
lowerback 6.97558 2.92392 2.43113
upperback -3.51795 4.10221 -0.359032
thorax -7.40988 1.86471 -2.27475
lowerneck -0.798529 16.898 8.80453
upperneck 6.14424 22.5287 -3.52132
head 3.66884 11.2857 -1.53134
rclavicle 2.14524e-014 2.42269e-015
rhumerus -49.7327 12.1666 -97.0959
rradius 33.6577
rwrist 20.9783
rhand -4.83131 -53.793
rfingers 7.12502
rthumb 20.9555 -82.681
lclavicle 2.14524e-014 2.42269e-015
lhumerus -42.1237 -6.39211 90.6924
lradius 35.799
lwrist -11.7465
lhand -2.47139 -37.9088
lfingers 7.12502
lthumb 23.2212 -9.28875
rfemur 2.78557 15.1611 26.6752
rtibia 15.6196
rfoot -18.0491 -29.4177
rtoes 5.59369
lfemur -5.6676 -15.2673 -23.6904
ltibia 25.9529
lfoot -20.3629 11.7699
ltoes -31.8889
74
root 8.69112 15.4581 23.1909 178.17 -1.36657 180.259
lowerback 6.85591 2.96349 2.56511
upperback -3.52588 4.16671 -0.319083
thorax -7.33954 1.89188 -2.30799
lowerneck -0.815982 16.885 8.8631
upperneck 6.26129 22.5058 -3.47839
head 3.71402 11.2762 -1.51984
rclavicle -4.49618e-014 -5.67779e-015
rhumerus -49.6666 12.0905 -96.965
rradius 33.6256
rwrist 21.3462
rhand -4.10141 -53.7275
rfingers 7.12502
rthumb 21.6566 -82.5363
lclavicle -4.49618e-014 -5.67779e-015
lhumerus -42.1813 -6.40411 90.7599
lradius 35.9039
lwrist -11.7816
lhand -2.59151 -37.6972
lfingers 7.12502
lthumb 23.1059 -9.06272
rfemur 2.68361 15.2337 26.7359
rtibia 15.5978
rfoot -17.7736 -29.3557
rtoes 4.79359
lfemur -5.70025 -15.1323 -23.5725
ltibia 25.9592
lfoot -20.2579 11.9534
ltoes -32.9046
75
root 8.6859 15.4561 23.1888 178.147 -1.18478 180.202
lowerback 6.84336 2.99021 2.51434
upperback -3.51628 4.19735 -0.314456
thorax -7.3242 1.91008 -2.27752
lowerneck -0.822644 16.8487 8.92174
upperneck 6.2949 22.4581 -3.5199
head 3.73818 11.2526 -1.54088
rclavicle 4.08817e-014 1.84186e-015
rhumerus -49.6128 12.1996 -96.9549
rradius 33.5782
rwrist 21.2036
rhand -3.7009 -53.9464
rfingers 7.12502
rthumb 22.0412 -82.7103
lclavicle 4.08817e-014 1.84186e-015
lhumerus -42.2296 -6.43024 90.8374
lradius 36.0179
lwrist -11.7386
lhand -2.8658 -37.5775
lfingers 7.12502
lthumb 22.8428 -8.91028
rfemur 2.70627 15.2634 26.6518
rtibia 15.5836
rfoot -17.6096 -29.2699
rtoes 4.50646
lfemur -5.62957 -15.071 -23.6704
ltibia 25.9438
lfoot -20.2101 12.1778
ltoes -33.5708
76
root 8.6822 15.4544 23.1855 178.014 -1.05247 180.099
lowerback 6.97953 3.0005 2.41949
upperback -3.51294 4.2043 -0.348861
thorax -7.40307 1.91581 -2.27044
lowerneck -0.822729 16.8037 8.97097
upperneck 6.35004 22.394 -3.49257
head 3.75644 11.2225 -1.54133
rclavicle -1.29247e-014 -2.51587e-015
rhumerus -49.6272 12.1298 -96.9226
rradius 33.614
rwrist 21.1239
rhand -3.26668 -54.2857
rfingers 7.12502
rthumb 22.458 -83
lclavicle -1.29247e-014 -2.51587e-015
lhumerus -42.3061 -6.48707 90.8124
lradius 36.0771
lwrist -11.7469
lhand -3.02798 -37.7893
lfingers 7.12502
lthumb 22.6871 -9.10291
rfemur 2.82288 15.3513 26.5837
rtibia 15.7045
rfoot -17.6414 -29.2721
rtoes 4.41436
lfemur -5.38453 -15.0661 -23.8583
ltibia 25.8418
lfoot -20.1432 12.3609
ltoes -33.7116
77
root 8.67637 15.4543 23.1866 177.95 -0.724692 180.092
lowerback 7.11747 3.04593 2.4597
upperback -3.54203 4.27292 -0.358855
thorax -7.50703 1.94421 -2.32208
lowerneck -0.748728 16.8029 9.03458
upperneck 6.38261 22.3938 -3.46607
head 3.75946 11.2252 -1.54676
rclavicle -1.69247e-014 -8.36449e-015
rhumerus -49.6774 12.0274 -96.906
rradius 33.6178
rwrist 20.9779
rhand -3.40688 -54.379
rfingers 7.12502
rthumb 22.3234 -83.1094
lclavicle -1.69247e-014 -8.36449e-015
lhumerus -42.438 -6.40265 90.7267
lradius 36.2
lwrist -11.8012
lhand -2.71076 -37.8184
lfingers 7.12502
lthumb 22.9915 -9.16955
rfemur 2.7634 15.4546 26.5482
rtibia 15.8832
rfoot -17.6398 -29.094
rtoes 4.03393
lfemur -5.17287 -15.0215 -23.9385
ltibia 25.674
lfoot -20.1011 12.6144
ltoes -33.5018
78
root 8.66671 15.456 23.1919 178.076 -0.197592 180.095
lowerback 7.11936 3.14358 2.52403
upperback -3.62115 4.41043 -0.335832
thorax -7.5829 2.00501 -2.35439
lowerneck -0.657596 16.8521 8.91675
upperneck 6.3711 22.4637 -3.38825
head 3.71608 11.2603 -1.51276
rclavicle -2.80325e-014 2.01269e-015
rhumerus -49.6943 12.1329 -96.9103
rradius 33.5629
rwrist 20.7864
rhand -3.71641 -54.3647
rfingers 7.12502
rthumb 22.0263 -83.1304
lclavicle -2.80325e-014 2.01269e-015
lhumerus -42.5006 -6.21977 90.73
lradius 36.2658
lwrist -11.6973
lhand -2.31749 -37.4542
lfingers 7.12502
lthumb 23.3688 -8.8529
rfemur 2.4365 15.4563 26.3793
rtibia 16.0125
rfoot -17.4948 -28.6592
rtoes 3.00656
lfemur -5.19146 -14.937 -23.9723
ltibia 25.523
lfoot -20.1363 12.9871
ltoes -33.2098
79
root 8.66201 15.4582 23.1898 178.124 -0.153099 180.09
lowerback 7.04251 3.11207 2.51919
upperback -3.67809 4.36325 -0.342786
thorax -7.60173 1.97988 -2.35005
lowerneck -0.552189 16.8596 8.84548
upperneck 6.391 22.4736 -3.27204
head 3.6782 11.2677 -1.47805
rclavicle -9.75287e-016 3.99433e-015
rhumerus -49.7429 12.093 -96.9086
rradius 33.564
rwrist 20.8232
rhand -3.54778 -54.352
rfingers 7.12502
rthumb 22.1882 -83.0985
lclavicle -9.75287e-016 3.99433e-015
lhumerus -42.6298 -6.39104 90.8161
lradius 36.3357
lwrist -11.4533
lhand -2.21484 -37.0585
lfingers 7.12502
lthumb 23.4673 -8.46976
rfemur 2.36062 15.4352 26.346
rtibia 16.1021
rfoot -17.6364 -28.6207
rtoes 2.91337
lfemur -5.15097 -15.1289 -24.0012
ltibia 25.4234
lfoot -20.485 12.918
ltoes -31.487
80
root 8.65613 15.4595 23.1885 178.116 -0.00456689 180.103
lowerback 7.02755 3.12611 2.5783
upperback -3.70882 4.38403 -0.386231
thorax -7.61721 1.98468 -2.43124
lowerneck -0.635865 16.8242 8.92054
upperneck 6.57902 22.4091 -3.15937
head 3.75026 11.2389 -1.44118
rclavicle 2.68437e-014 2.10588e-015
rhumerus -49.8519 11.9671 -96.9747
rradius 33.6593
rwrist 20.5388
rhand -3.80254 -54.28
rfingers 7.12502
rthumb 21.9436 -83.0555
lclavicle 2.68437e-014 2.10588e-015
lhumerus -42.7832 -6.69873 90.8593
lradius 36.4313
lwrist -11.2986
lhand -2.28454 -36.9325
lfingers 7.12502
lthumb 23.4005 -8.33522
rfemur 2.30264 15.4211 26.3233
rtibia 16.2051
rfoot -17.6111 -28.4876
rtoes 3.01527
lfemur -5.03847 -15.249 -24.0425
ltibia 25.3286
lfoot -20.7801 12.9441
ltoes -29.6779
81
root 8.64979 15.4571 23.1875 178.121 0.0909969 180.167
lowerback 6.95736 3.04034 2.63501
upperback -3.70311 4.37272 -0.364956
thorax -7.57073 2.02008 -2.43992
lowerneck -0.869593 16.7967 8.99981
upperneck 6.82886 22.3483 -3.08738
head 3.8789 11.2095 -1.39874
rclavicle 8.93638e-015 2.85753e-015
rhumerus -49.9217 11.9087 -96.9657
rradius 33.7842
rwrist 20.247
rhand -4.23442 -54.2152
rfingers 7.12502
rthumb 21.5288 -83.0387
lclavicle 8.93638e-015 2.85753e-015
lhumerus -42.8044 -6.68225 90.8317
lradius 36.4146
lwrist -11.2969
lhand -2.4089 -37.0619
lfingers 7.12502
lthumb 23.2812 -8.44945
rfemur 2.2302 15.3911 26.3542
rtibia 16.2927
rfoot -17.4849 -28.4079
rtoes 2.7238
lfemur -4.97217 -15.3419 -24.0356
ltibia 25.2373
lfoot -20.5967 13.3288
ltoes -30.6223
82
root 8.64435 15.4573 23.1872 178.193 0.226104 180.178
lowerback 6.85658 3.01569 2.60625
upperback -3.72219 4.33846 -0.33155
thorax -7.53935 2.0073 -2.37882
lowerneck -0.951348 16.7759 9.07115
upperneck 6.88088 22.3162 -3.13105
head 3.9266 11.193 -1.4125
rclavicle 8.89212e-015 2.85442e-015
rhumerus -49.9086 11.9249 -96.9022
rradius 33.8119
rwrist 20.207
rhand -4.43687 -54.1844
rfingers 7.12502
rthumb 21.3344 -83.03
lclavicle 8.89212e-015 2.85442e-015
lhumerus -42.8248 -6.60374 90.8334
lradius 36.4457
lwrist -11.2859
lhand -2.43833 -37.2494
lfingers 7.12502
lthumb 23.2529 -8.63334
rfemur 2.09019 15.3978 26.3103
rtibia 16.3849
rfoot -17.4676 -28.302
rtoes 2.24409
lfemur -5.00356 -15.4077 -24.0728
ltibia 25.1524
lfoot -20.3723 13.8092
ltoes -32.4372
83
root 8.64012 15.4572 23.187 178.232 0.393551 180.132
lowerback 6.8165 3.00121 2.52129
upperback -3.72722 4.31115 -0.314606
thorax -7.53027 1.99919 -2.30808
lowerneck -0.968445 16.782 9.05215
upperneck 6.83784 22.3263 -3.15641
head 3.91595 11.1968 -1.41749
rclavicle 5.88542e-014 3.8763e-015
rhumerus -49.7912 12.0413 -96.8895
rradius 33.7152
rwrist 20.0999
rhand -4.7614 -54.072
rfingers 7.12502
rthumb 21.0227 -82.9526
lclavicle 5.88542e-014 3.8763e-015
lhumerus -42.7744 -6.48754 90.8
lradius 36.3738
lwrist -11.4051
lhand -2.46991 -37.4334
lfingers 7.12502
lthumb 23.2226 -8.81359
rfemur 1.96113 15.4346 26.2137
rtibia 16.5152
rfoot -17.5851 -28.2107
rtoes 1.89662
lfemur -4.97492 -15.4848 -24.1795
ltibia 25.0445
lfoot -20.2169 14.2877
ltoes -33.7265
